<svg width="40" height="40" viewBox="0 0 40 40" fill="none" xmlns="http://www.w3.org/2000/svg">
<path d="M0 8C0 3.58172 3.58172 0 8 0H32C36.4183 0 40 3.58172 40 8V32C40 36.4183 36.4183 40 32 40H8C3.58172 40 0 36.4183 0 32V8Z" fill="#5579EC"/>
<g clip-path="url(#clip0_2173_6533)">
<path fill-rule="evenodd" clip-rule="evenodd" d="M20.1933 12.5488C18.6708 12.9751 16.9099 14.0097 15.3243 15.5953C13.7387 17.1809 12.7041 18.9418 12.2778 20.4643C11.841 22.0244 12.0909 23.0864 12.6432 23.6386C13.017 24.0124 13.6037 24.2441 14.4449 24.2244C15.2916 24.2046 16.3253 23.9263 17.4358 23.3611C18.5221 22.8082 19.6451 21.999 20.6865 20.9575C21.728 19.9161 22.5372 18.7931 23.0901 17.7068C23.6553 16.5963 23.9336 15.5626 23.9534 14.7159C23.9731 13.8747 23.7414 13.288 23.3676 12.9142C22.8154 12.3619 21.7534 12.112 20.1933 12.5488ZM26.0491 15.5957C25.9378 16.3711 25.7006 17.1723 25.3587 17.9694L27.122 19.7327C27.2983 19.1642 27.3895 18.6346 27.4006 18.1631C27.4203 17.3219 27.1886 16.7351 26.8148 16.3613L26.0491 15.5957ZM26.1597 21.8345L24.2842 19.959C23.8981 20.5501 23.4552 21.1337 22.9597 21.6986L24.871 23.6099C25.3719 23.0271 25.8028 22.4291 26.1597 21.8345ZM23.3389 25.142L21.4276 23.2307C20.8627 23.7262 20.2791 24.1691 19.688 24.5552L21.5635 26.4307C22.158 26.0738 22.7561 25.6429 23.3389 25.142ZM19.4617 27.393L17.6984 25.6297C16.9013 25.9716 16.1001 26.2088 15.3247 26.3201L16.0903 27.0858C16.4641 27.4596 17.0509 27.6913 17.8921 27.6716C18.3636 27.6605 18.8932 27.5693 19.4617 27.393ZM19.6091 10.4624C21.5147 9.92881 23.5481 10.0306 24.8997 11.3821L28.3468 14.8293C29.249 15.7314 29.5961 16.9558 29.5666 18.2138C29.5373 19.4662 29.1386 20.8196 28.4681 22.1368C27.8049 23.4399 26.8567 24.7457 25.6657 25.9367C24.4747 27.1277 23.1689 28.0759 21.8658 28.7391C20.5486 29.4096 19.1952 29.8083 17.9428 29.8376C16.6848 29.8671 15.4604 29.52 14.5583 28.6178L11.1111 25.1707C9.75956 23.8191 9.65781 21.7857 10.1914 19.8801C10.7354 17.9371 11.9933 15.8622 13.7922 14.0632C15.5911 12.2643 17.6661 11.0064 19.6091 10.4624Z" fill="white"/>
</g>
<defs>
<clipPath id="clip0_2173_6533">
<rect width="26" height="26" fill="white" transform="translate(7 7)"/>
</clipPath>
</defs>
</svg>
