<svg width="46" height="46" viewBox="0 0 46 46" fill="none" xmlns="http://www.w3.org/2000/svg">
<path fill-rule="evenodd" clip-rule="evenodd" d="M9.82023 0C4.39667 0 0 4.39666 0 9.82022V36.1798C0 41.6033 4.39667 46 9.82023 46H36.1798C41.6033 46 46 41.6033 46 36.1798V9.82022C46 4.39666 41.6033 0 36.1798 0H9.82023ZM8.05873 17.7722C7.20292 19.3127 6.77501 21.0719 6.77501 23.0497C6.77501 25.0276 7.20292 26.7868 8.05873 28.3273C8.91455 29.8677 10.1032 31.0754 11.6246 31.9502C13.1651 32.806 14.9052 33.2339 16.8451 33.2339C19.2224 33.2339 21.2573 32.6158 22.9499 31.3797C24.6425 30.1245 25.7741 28.4129 26.3446 26.2448H20.9815C20.5821 27.0816 20.0116 27.7187 19.2699 28.1561C18.5472 28.5935 17.7199 28.8122 16.788 28.8122C15.2856 28.8122 14.0685 28.2892 13.1366 27.2432C12.2047 26.1972 11.7387 24.7994 11.7387 23.0497C11.7387 21.3001 12.2047 19.9023 13.1366 18.8563C14.0685 17.8103 15.2856 17.2873 16.788 17.2873C17.7199 17.2873 18.5472 17.506 19.2699 17.9434C20.0116 18.3808 20.5821 19.0179 20.9815 19.8547H26.3446C25.7741 17.6866 24.6425 15.975 22.9499 14.7198C21.2573 13.4646 19.2224 12.837 16.8451 12.837C14.9052 12.837 13.1651 13.2745 11.6246 14.1493C10.1032 15.0051 8.91455 16.2127 8.05873 17.7722ZM36.3496 17.7722C35.4938 18.2667 34.7806 18.9513 34.2101 19.8262V17.1732H29.3319V33.0913H34.2101V25.7028C34.2101 24.3905 34.5144 23.4777 35.123 22.9642C35.7315 22.4317 36.6444 22.1654 37.8616 22.1654H39.2023V17.002C38.1563 17.002 37.2054 17.2587 36.3496 17.7722Z" fill="white"/>
</svg>
